<svg width="180" height="180" viewBox="0 0 180 180" fill="none" xmlns="http://www.w3.org/2000/svg">
<path d="M49.0637 132.2C43.9303 132.2 39.4303 130.9 35.5637 128.3C31.697 125.7 28.897 122.167 27.1637 117.7L33.4637 114.7C34.997 117.967 37.1303 120.567 39.8637 122.5C42.6637 124.433 45.7303 125.4 49.0637 125.4C52.2637 125.4 54.9637 124.633 57.1637 123.1C59.3637 121.5 60.4637 119.433 60.4637 116.9C60.4637 115.033 59.9303 113.567 58.8637 112.5C57.797 111.367 56.5637 110.5 55.1637 109.9C53.7637 109.3 52.5303 108.867 51.4637 108.6L43.7637 106.4C38.8303 105 35.2637 103.033 33.0637 100.5C30.8637 97.9667 29.7637 95.0333 29.7637 91.7C29.7637 88.5667 30.5637 85.8333 32.1637 83.5C33.7637 81.1667 35.9303 79.3667 38.6637 78.1C41.397 76.8333 44.4303 76.2 47.7637 76.2C52.297 76.2 56.397 77.4 60.0637 79.8C63.797 82.1333 66.4303 85.4 67.9637 89.6L61.5637 92.6C60.2303 89.6 58.297 87.2667 55.7637 85.6C53.297 83.8667 50.5303 83 47.4637 83C44.4637 83 42.0637 83.7667 40.2637 85.3C38.4637 86.8333 37.5637 88.7667 37.5637 91.1C37.5637 92.9 38.0303 94.3333 38.9637 95.4C39.897 96.4667 40.9637 97.2667 42.1637 97.8C43.4303 98.3333 44.5303 98.7333 45.4637 99L54.3637 101.6C58.697 102.867 62.0637 104.833 64.4637 107.5C66.9303 110.167 68.1637 113.3 68.1637 116.9C68.1637 119.833 67.3303 122.467 65.6637 124.8C64.0637 127.133 61.8303 128.967 58.9637 130.3C56.097 131.567 52.797 132.2 49.0637 132.2ZM82.4426 131V56.5H89.4426L117.443 97.1H113.543L141.443 56.5H148.443V131H140.443V67.3L143.043 68.3L115.643 108H115.243L87.9426 68.3L90.4426 67.3V131H82.4426Z" fill="url(#paint0_linear_18_8)"/>
<defs>
<linearGradient id="paint0_linear_18_8" x1="77.0769" y1="75.6383" x2="97.8498" y2="75.4297" gradientUnits="userSpaceOnUse">
<stop offset="5.39418e-10" stop-color="#1E3A8A"/>
<stop offset="1" stop-color="#059669"/>
</linearGradient>
</defs>
</svg>
