<svg width="192" height="192" viewBox="0 0 192 192" fill="none" xmlns="http://www.w3.org/2000/svg">
<path d="M55.0637 138.2C49.9303 138.2 45.4303 136.9 41.5637 134.3C37.697 131.7 34.897 128.167 33.1637 123.7L39.4637 120.7C40.997 123.967 43.1303 126.567 45.8637 128.5C48.6637 130.433 51.7303 131.4 55.0637 131.4C58.2637 131.4 60.9637 130.633 63.1637 129.1C65.3637 127.5 66.4637 125.433 66.4637 122.9C66.4637 121.033 65.9303 119.567 64.8637 118.5C63.797 117.367 62.5637 116.5 61.1637 115.9C59.7637 115.3 58.5303 114.867 57.4637 114.6L49.7637 112.4C44.8303 111 41.2637 109.033 39.0637 106.5C36.8637 103.967 35.7637 101.033 35.7637 97.7C35.7637 94.5667 36.5637 91.8333 38.1637 89.5C39.7637 87.1667 41.9303 85.3667 44.6637 84.1C47.397 82.8333 50.4303 82.2 53.7637 82.2C58.297 82.2 62.397 83.4 66.0637 85.8C69.797 88.1333 72.4303 91.4 73.9637 95.6L67.5637 98.6C66.2303 95.6 64.297 93.2667 61.7637 91.6C59.297 89.8667 56.5303 89 53.4637 89C50.4637 89 48.0637 89.7667 46.2637 91.3C44.4637 92.8333 43.5637 94.7667 43.5637 97.1C43.5637 98.9 44.0303 100.333 44.9637 101.4C45.897 102.467 46.9637 103.267 48.1637 103.8C49.4303 104.333 50.5303 104.733 51.4637 105L60.3637 107.6C64.697 108.867 68.0637 110.833 70.4637 113.5C72.9303 116.167 74.1637 119.3 74.1637 122.9C74.1637 125.833 73.3303 128.467 71.6637 130.8C70.0637 133.133 67.8303 134.967 64.9637 136.3C62.097 137.567 58.797 138.2 55.0637 138.2ZM88.4426 137V62.5H95.4426L123.443 103.1H119.543L147.443 62.5H154.443V137H146.443V73.3L149.043 74.3L121.643 114H121.243L93.9426 74.3L96.4426 73.3V137H88.4426Z" fill="url(#paint0_linear_18_11)"/>
<defs>
<linearGradient id="paint0_linear_18_11" x1="82.2154" y1="80.6809" x2="104.373" y2="80.4583" gradientUnits="userSpaceOnUse">
<stop offset="5.39418e-10" stop-color="#1E3A8A"/>
<stop offset="1" stop-color="#059669"/>
</linearGradient>
</defs>
</svg>
