<svg width="32" height="32" viewBox="0 0 32 32" fill="none" xmlns="http://www.w3.org/2000/svg">
<path d="M7.81273 24.24C6.78607 24.24 5.88607 23.98 5.11273 23.46C4.3394 22.94 3.7794 22.2333 3.43273 21.34L4.69273 20.74C4.9994 21.3933 5.42607 21.9133 5.97273 22.3C6.53273 22.6867 7.14607 22.88 7.81273 22.88C8.45273 22.88 8.99273 22.7267 9.43273 22.42C9.87273 22.1 10.0927 21.6867 10.0927 21.18C10.0927 20.8067 9.98607 20.5133 9.77273 20.3C9.5594 20.0733 9.31273 19.9 9.03273 19.78C8.75273 19.66 8.50607 19.5733 8.29273 19.52L6.75273 19.08C5.76607 18.8 5.05273 18.4067 4.61273 17.9C4.17273 17.3933 3.95273 16.8067 3.95273 16.14C3.95273 15.5133 4.11273 14.9667 4.43273 14.5C4.75273 14.0333 5.18607 13.6733 5.73273 13.42C6.2794 13.1667 6.88607 13.04 7.55273 13.04C8.4594 13.04 9.2794 13.28 10.0127 13.76C10.7594 14.2267 11.2861 14.88 11.5927 15.72L10.3127 16.32C10.0461 15.72 9.6594 15.2533 9.15273 14.92C8.6594 14.5733 8.10607 14.4 7.49273 14.4C6.89273 14.4 6.41273 14.5533 6.05273 14.86C5.69273 15.1667 5.51273 15.5533 5.51273 16.02C5.51273 16.38 5.60607 16.6667 5.79273 16.88C5.9794 17.0933 6.19273 17.2533 6.43273 17.36C6.68607 17.4667 6.90607 17.5467 7.09273 17.6L8.87273 18.12C9.7394 18.3733 10.4127 18.7667 10.8927 19.3C11.3861 19.8333 11.6327 20.46 11.6327 21.18C11.6327 21.7667 11.4661 22.2933 11.1327 22.76C10.8127 23.2267 10.3661 23.5933 9.79273 23.86C9.2194 24.1133 8.5594 24.24 7.81273 24.24ZM14.4885 24V9.1H15.8885L21.4885 17.22H20.7085L26.2885 9.1H27.6885V24H26.0885V11.26L26.6085 11.46L21.1285 19.4H21.0485L15.5885 11.46L16.0885 11.26V24H14.4885Z" fill="url(#paint0_linear_18_5)"/>
<defs>
<linearGradient id="paint0_linear_18_5" x1="13.7026" y1="13.4468" x2="17.3955" y2="13.4097" gradientUnits="userSpaceOnUse">
<stop offset="5.39418e-10" stop-color="#1E3A8A"/>
<stop offset="1" stop-color="#059669"/>
</linearGradient>
</defs>
</svg>
