<svg width="315" height="77" viewBox="0 0 315 77" fill="none" xmlns="http://www.w3.org/2000/svg">
<circle cx="145.613" cy="9.88238" r="9.88238" fill="#1E3A8A"/>
<circle cx="198.113" cy="9.94488" r="9.88238" fill="#059669"/>
<path d="M14.0814 66.3043C11.5148 66.3043 9.26476 65.6543 7.33143 64.3543C5.39809 63.0543 3.99809 61.2877 3.13143 59.0543L6.28143 57.5543C7.04809 59.1877 8.11476 60.4877 9.48143 61.4543C10.8814 62.421 12.4148 62.9043 14.0814 62.9043C15.6814 62.9043 17.0314 62.521 18.1314 61.7543C19.2314 60.9543 19.7814 59.921 19.7814 58.6543C19.7814 57.721 19.5148 56.9877 18.9814 56.4543C18.4481 55.8877 17.8314 55.4543 17.1314 55.1543C16.4314 54.8543 15.8148 54.6377 15.2814 54.5043L11.4314 53.4043C8.96476 52.7043 7.18143 51.721 6.08143 50.4543C4.98143 49.1877 4.43143 47.721 4.43143 46.0543C4.43143 44.4877 4.83143 43.121 5.63143 41.9543C6.43143 40.7877 7.51476 39.8877 8.88143 39.2543C10.2481 38.621 11.7648 38.3043 13.4314 38.3043C15.6981 38.3043 17.7481 38.9043 19.5814 40.1043C21.4481 41.271 22.7648 42.9043 23.5314 45.0043L20.3314 46.5043C19.6648 45.0043 18.6981 43.8377 17.4314 43.0043C16.1981 42.1377 14.8148 41.7043 13.2814 41.7043C11.7814 41.7043 10.5814 42.0877 9.68143 42.8543C8.78143 43.621 8.33143 44.5877 8.33143 45.7543C8.33143 46.6543 8.56476 47.371 9.03143 47.9043C9.49809 48.4377 10.0314 48.8377 10.6314 49.1043C11.2648 49.371 11.8148 49.571 12.2814 49.7043L16.7314 51.0043C18.8981 51.6377 20.5814 52.621 21.7814 53.9543C23.0148 55.2877 23.6314 56.8543 23.6314 58.6543C23.6314 60.121 23.2148 61.4377 22.3814 62.6043C21.5814 63.771 20.4648 64.6877 19.0314 65.3543C17.5981 65.9877 15.9481 66.3043 14.0814 66.3043ZM40.4709 66.0043C38.0709 66.0043 36.2209 65.3043 34.9209 63.9043C33.6209 62.5043 32.9709 60.5043 32.9709 57.9043V42.6543H28.0209V38.9043H29.2709C30.4042 38.9043 31.3042 38.5377 31.9709 37.8043C32.6375 37.0377 32.9709 36.0877 32.9709 34.9543V32.7043H36.7209V38.9043H42.6209V42.6543H36.7209V57.9043C36.7209 58.8043 36.8542 59.6043 37.1209 60.3043C37.3875 60.971 37.8375 61.5043 38.4709 61.9043C39.1375 62.3043 40.0209 62.5043 41.1209 62.5043C41.3875 62.5043 41.7042 62.4877 42.0709 62.4543C42.4375 62.421 42.7542 62.3877 43.0209 62.3543V65.7043C42.6209 65.8043 42.1709 65.871 41.6709 65.9043C41.1709 65.971 40.7709 66.0043 40.4709 66.0043ZM56.8674 66.3043C55.1674 66.3043 53.6507 65.9877 52.3174 65.3543C50.984 64.6877 49.934 63.7877 49.1674 62.6543C48.4007 61.521 48.0174 60.221 48.0174 58.7543C48.0174 57.3543 48.3174 56.0877 48.9174 54.9543C49.5174 53.7877 50.4507 52.8043 51.7174 52.0043C52.984 51.2043 54.6007 50.6377 56.5674 50.3043L67.0674 48.5543V51.9543L57.4674 53.5543C55.534 53.8877 54.134 54.5043 53.2674 55.4043C52.434 56.3043 52.0174 57.371 52.0174 58.6043C52.0174 59.8043 52.484 60.821 53.4174 61.6543C54.384 62.4877 55.6174 62.9043 57.1174 62.9043C58.9507 62.9043 60.5507 62.521 61.9174 61.7543C63.284 60.9543 64.3507 59.8877 65.1174 58.5543C65.884 57.221 66.2674 55.7377 66.2674 54.1043V47.3043C66.2674 45.7043 65.684 44.4043 64.5174 43.4043C63.3507 42.4043 61.834 41.9043 59.9674 41.9043C58.334 41.9043 56.9007 42.321 55.6674 43.1543C54.434 43.9543 53.5174 45.0043 52.9174 46.3043L49.5174 44.4543C50.0174 43.321 50.8007 42.2877 51.8674 41.3543C52.9674 40.421 54.2174 39.6877 55.6174 39.1543C57.0174 38.5877 58.4674 38.3043 59.9674 38.3043C61.934 38.3043 63.6674 38.6877 65.1674 39.4543C66.7007 40.221 67.884 41.2877 68.7174 42.6543C69.584 43.9877 70.0174 45.5377 70.0174 47.3043V65.7043H66.2674V60.3543L66.8174 60.9043C66.3507 61.9043 65.6174 62.821 64.6174 63.6543C63.6507 64.4543 62.5007 65.1043 61.1674 65.6043C59.8674 66.071 58.434 66.3043 56.8674 66.3043ZM90.4306 76.7043C88.5973 76.7043 86.8973 76.421 85.3306 75.8543C83.7973 75.2877 82.464 74.5043 81.3306 73.5043C80.2306 72.5377 79.3806 71.4043 78.7806 70.1043L82.2306 68.2543C82.764 69.521 83.714 70.621 85.0806 71.5543C86.4473 72.4877 88.1973 72.9543 90.3306 72.9543C91.964 72.9543 93.464 72.6377 94.8306 72.0043C96.1973 71.371 97.2973 70.4377 98.1306 69.2043C98.964 67.971 99.3806 66.4543 99.3806 64.6543V58.7043L99.9806 59.2543C99.0473 61.1877 97.664 62.6877 95.8306 63.7543C93.9973 64.7877 91.9973 65.3043 89.8306 65.3043C87.3306 65.3043 85.0806 64.7043 83.0806 63.5043C81.0806 62.3043 79.4973 60.6877 78.3306 58.6543C77.1973 56.5877 76.6306 54.3043 76.6306 51.8043C76.6306 49.271 77.1973 46.9877 78.3306 44.9543C79.4973 42.921 81.064 41.3043 83.0306 40.1043C85.0306 38.9043 87.2973 38.3043 89.8306 38.3043C91.9973 38.3043 93.964 38.8043 95.7306 39.8043C97.5306 40.8043 98.9473 42.1543 99.9806 43.8543L99.3806 44.9043V38.9043H103.131V64.6543C103.131 66.9543 102.581 69.0043 101.481 70.8043C100.414 72.6377 98.914 74.071 96.9806 75.1043C95.0806 76.171 92.8973 76.7043 90.4306 76.7043ZM90.0306 61.5543C91.764 61.5543 93.3306 61.121 94.7306 60.2543C96.1306 59.3543 97.2473 58.171 98.0806 56.7043C98.9473 55.2043 99.3806 53.571 99.3806 51.8043C99.3806 50.0377 98.9473 48.421 98.0806 46.9543C97.2473 45.4543 96.1306 44.271 94.7306 43.4043C93.3306 42.5043 91.764 42.0543 90.0306 42.0543C88.264 42.0543 86.664 42.5043 85.2306 43.4043C83.7973 44.271 82.664 45.4377 81.8306 46.9043C81.0306 48.371 80.6306 50.0043 80.6306 51.8043C80.6306 53.571 81.0306 55.2043 81.8306 56.7043C82.664 58.171 83.7806 59.3543 85.1806 60.2543C86.614 61.121 88.2306 61.5543 90.0306 61.5543ZM123.036 66.3043C120.536 66.3043 118.269 65.7043 116.236 64.5043C114.236 63.271 112.653 61.5877 111.486 59.4543C110.319 57.321 109.736 54.9043 109.736 52.2043C109.736 49.5043 110.303 47.121 111.436 45.0543C112.569 42.9543 114.103 41.3043 116.036 40.1043C118.003 38.9043 120.203 38.3043 122.636 38.3043C124.569 38.3043 126.286 38.671 127.786 39.4043C129.319 40.1043 130.619 41.071 131.686 42.3043C132.753 43.5043 133.569 44.871 134.136 46.4043C134.703 47.9043 134.986 49.4543 134.986 51.0543C134.986 51.3877 134.969 51.771 134.936 52.2043C134.903 52.6043 134.853 53.021 134.786 53.4543H112.136V49.9543H132.636L130.836 51.4543C131.136 49.621 130.919 47.9877 130.186 46.5543C129.486 45.0877 128.469 43.9377 127.136 43.1043C125.803 42.2377 124.303 41.8043 122.636 41.8043C120.969 41.8043 119.419 42.2377 117.986 43.1043C116.586 43.971 115.486 45.1877 114.686 46.7543C113.886 48.2877 113.569 50.121 113.736 52.2543C113.569 54.3877 113.903 56.2543 114.736 57.8543C115.603 59.421 116.769 60.6377 118.236 61.5043C119.736 62.371 121.336 62.8043 123.036 62.8043C125.003 62.8043 126.653 62.3377 127.986 61.4043C129.319 60.471 130.403 59.3043 131.236 57.9043L134.436 59.6043C133.903 60.8043 133.086 61.921 131.986 62.9543C130.886 63.9543 129.569 64.771 128.036 65.4043C126.536 66.0043 124.869 66.3043 123.036 66.3043Z" fill="url(#paint0_linear_17_7)"/>
<path d="M142.642 65.0705V20.7043H148.945L174.16 39.0441H170.648L195.772 20.7043H202.076V65.0705H194.871V27.136L197.213 27.7315L172.356 44.7787L147.594 27.7315L149.846 27.136V65.0705H142.642Z" fill="url(#paint1_linear_17_7)"/>
<path d="M219.531 66.3043C217.831 66.3043 216.314 65.9877 214.981 65.3543C213.648 64.6877 212.598 63.7877 211.831 62.6543C211.064 61.521 210.681 60.221 210.681 58.7543C210.681 57.3543 210.981 56.0877 211.581 54.9543C212.181 53.7877 213.114 52.8043 214.381 52.0043C215.648 51.2043 217.264 50.6377 219.231 50.3043L229.731 48.5543V51.9543L220.131 53.5543C218.198 53.8877 216.798 54.5043 215.931 55.4043C215.098 56.3043 214.681 57.371 214.681 58.6043C214.681 59.8043 215.148 60.821 216.081 61.6543C217.048 62.4877 218.281 62.9043 219.781 62.9043C221.614 62.9043 223.214 62.521 224.581 61.7543C225.948 60.9543 227.014 59.8877 227.781 58.5543C228.548 57.221 228.931 55.7377 228.931 54.1043V47.3043C228.931 45.7043 228.348 44.4043 227.181 43.4043C226.014 42.4043 224.498 41.9043 222.631 41.9043C220.998 41.9043 219.564 42.321 218.331 43.1543C217.098 43.9543 216.181 45.0043 215.581 46.3043L212.181 44.4543C212.681 43.321 213.464 42.2877 214.531 41.3543C215.631 40.421 216.881 39.6877 218.281 39.1543C219.681 38.5877 221.131 38.3043 222.631 38.3043C224.598 38.3043 226.331 38.6877 227.831 39.4543C229.364 40.221 230.548 41.2877 231.381 42.6543C232.248 43.9877 232.681 45.5377 232.681 47.3043V65.7043H228.931V60.3543L229.481 60.9043C229.014 61.9043 228.281 62.821 227.281 63.6543C226.314 64.4543 225.164 65.1043 223.831 65.6043C222.531 66.071 221.098 66.3043 219.531 66.3043ZM250.156 66.0043C247.756 66.0043 245.906 65.3043 244.606 63.9043C243.306 62.5043 242.656 60.5043 242.656 57.9043V42.6543H237.706V38.9043H238.956C240.089 38.9043 240.989 38.5377 241.656 37.8043C242.323 37.0377 242.656 36.0877 242.656 34.9543V32.7043H246.406V38.9043H252.306V42.6543H246.406V57.9043C246.406 58.8043 246.539 59.6043 246.806 60.3043C247.073 60.971 247.523 61.5043 248.156 61.9043C248.823 62.3043 249.706 62.5043 250.806 62.5043C251.073 62.5043 251.389 62.4877 251.756 62.4543C252.123 62.421 252.439 62.3877 252.706 62.3543V65.7043C252.306 65.8043 251.856 65.871 251.356 65.9043C250.856 65.971 250.456 66.0043 250.156 66.0043ZM270.564 66.3043C267.931 66.3043 265.614 65.6877 263.614 64.4543C261.614 63.221 260.048 61.5543 258.914 59.4543C257.781 57.321 257.214 54.921 257.214 52.2543C257.214 49.5877 257.781 47.2043 258.914 45.1043C260.048 43.0043 261.614 41.3543 263.614 40.1543C265.614 38.921 267.931 38.3043 270.564 38.3043C272.231 38.3043 273.798 38.6043 275.264 39.2043C276.731 39.8043 278.031 40.621 279.164 41.6543C280.298 42.6543 281.148 43.821 281.714 45.1543L278.314 46.9043C277.648 45.471 276.631 44.3043 275.264 43.4043C273.898 42.5043 272.331 42.0543 270.564 42.0543C268.798 42.0543 267.198 42.5043 265.764 43.4043C264.364 44.271 263.248 45.4877 262.414 47.0543C261.614 48.5877 261.214 50.3377 261.214 52.3043C261.214 54.2377 261.614 55.9877 262.414 57.5543C263.248 59.0877 264.364 60.3043 265.764 61.2043C267.198 62.1043 268.798 62.5543 270.564 62.5543C272.331 62.5543 273.881 62.1043 275.214 61.2043C276.581 60.3043 277.614 59.1043 278.314 57.6043L281.714 59.4543C281.148 60.7543 280.298 61.921 279.164 62.9543C278.031 63.9877 276.731 64.8043 275.264 65.4043C273.798 66.0043 272.231 66.3043 270.564 66.3043ZM288.295 65.7043V27.8543H292.045V44.1043L291.195 43.9043C291.861 42.171 292.945 40.8043 294.445 39.8043C295.978 38.8043 297.745 38.3043 299.745 38.3043C301.645 38.3043 303.345 38.7377 304.845 39.6043C306.378 40.471 307.578 41.671 308.445 43.2043C309.345 44.7043 309.795 46.4043 309.795 48.3043V65.7043H306.045V49.7543C306.045 48.121 305.745 46.7377 305.145 45.6043C304.545 44.471 303.711 43.6043 302.645 43.0043C301.611 42.371 300.428 42.0543 299.095 42.0543C297.761 42.0543 296.561 42.371 295.495 43.0043C294.428 43.6043 293.578 44.4877 292.945 45.6543C292.345 46.7877 292.045 48.1543 292.045 49.7543V65.7043H288.295Z" fill="url(#paint2_linear_17_7)"/>
<defs>
<linearGradient id="paint0_linear_17_7" x1="51.0117" y1="44.5656" x2="83.355" y2="44.4428" gradientUnits="userSpaceOnUse">
<stop stop-color="#1E3A8A"/>
<stop offset="1" stop-color="#059669"/>
</linearGradient>
<linearGradient id="paint1_linear_17_7" x1="164.504" y1="42.1795" x2="178.365" y2="42.1544" gradientUnits="userSpaceOnUse">
<stop stop-color="#1E3A8A"/>
<stop offset="1" stop-color="#059669"/>
</linearGradient>
<linearGradient id="paint2_linear_17_7" x1="246.118" y1="44.5656" x2="271.531" y2="44.4898" gradientUnits="userSpaceOnUse">
<stop stop-color="#1E3A8A"/>
<stop offset="1" stop-color="#059669"/>
</linearGradient>
</defs>
</svg>
